<svg width="42" height="42" viewBox="0 0 24 24" fill="none" xmlns="http://www.w3.org/2000/svg">
<circle cx="12" cy="12" r="12" fill="#292929"/>
<path fill-rule="evenodd" clip-rule="evenodd" d="M14.1213 15.5355C14.5119 15.9261 15.145 15.9261 15.5356 15.5355C15.9261 15.145 15.9261 14.5118 15.5356 14.1213L13.4142 12L15.5356 9.87868C15.9261 9.48816 15.9261 8.85499 15.5356 8.46447C15.145 8.07394 14.5119 8.07394 14.1213 8.46447L12 10.5858L9.8787 8.46447C9.48818 8.07394 8.85501 8.07394 8.46449 8.46447C8.07396 8.85499 8.07396 9.48816 8.46449 9.87868L10.5858 12L8.46449 14.1213C8.07396 14.5118 8.07396 15.145 8.46449 15.5355C8.85501 15.9261 9.48818 15.9261 9.8787 15.5355L12 13.4142L14.1213 15.5355Z" fill="#fdce22"/>
</svg>
