<svg width="37" height="38" viewBox="0 0 37 38" fill="none" xmlns="http://www.w3.org/2000/svg">
<path fill-rule="evenodd" clip-rule="evenodd" d="M0 17.3304C0 7.72854 8.30409 0 18.4772 0C28.6503 0 36.9544 7.72849 36.9544 17.3304C36.9544 26.9323 28.6504 34.6609 18.4772 34.6609C16.7092 34.6609 14.9984 34.4277 13.378 33.9923L7.42137 37.3003L6.67862 37.7128V36.8632V30.6683C2.60515 27.4949 0 22.7022 0 17.3304ZM18.4772 1C8.79326 1 1 8.34189 1 17.3304C1 22.4476 3.5199 27.0235 7.4805 30.0233L7.67862 30.1733V30.4219V36.0135L13.0709 33.019L13.2506 32.9192L13.4486 32.9746C15.0404 33.4208 16.7283 33.6609 18.4772 33.6609C28.1612 33.6609 35.9544 26.3189 35.9544 17.3304C35.9544 8.34185 28.1612 1 18.4772 1ZM20.3706 23.0693L15.721 18.2333L6.76693 23.1911L16.5839 12.7611L21.2334 17.597L30.1875 12.6393L20.3706 23.0693Z" fill="#75F3E7" stroke-width="10"/>
</svg>
