<svg width="42" height="42" viewBox="0 0 32 32" fill="none" xmlns="http://www.w3.org/2000/svg">
<path fill-rule="evenodd" clip-rule="evenodd" d="M16 16C18.5733 16 20.6667 13.9067 20.6667 11.3333C20.6667 8.76001 18.5733 6.66667 16 6.66667C13.4267 6.66667 11.3333 8.76001 11.3333 11.3333C11.3333 13.9067 13.4267 16 16 16ZM6.66667 20V16H10.6667V13.3333H6.66667V9.33334H4V13.3333H0V16H4V20H6.66667ZM16 18.3333C12.88 18.3333 6.66667 19.8933 6.66667 23V25.3333H25.3333V23C25.3333 19.8933 19.12 18.3333 16 18.3333ZM16 21C13.6133 21 10.9067 21.8933 9.78666 22.6667H22.2133C21.0933 21.8933 18.3867 21 16 21ZM18 11.3333C18 10.2267 17.1067 9.33334 16 9.33334C14.8933 9.33334 14 10.2267 14 11.3333C14 12.44 14.8933 13.3333 16 13.3333C17.1067 13.3333 18 12.44 18 11.3333ZM22.6667 16C25.24 16 27.3333 13.9067 27.3333 11.3333C27.3333 8.76001 25.24 6.66667 22.6667 6.66667C22.3467 6.66667 22.0267 6.69334 21.72 6.76001C22.7333 8.01334 23.3333 9.60001 23.3333 11.3333C23.3333 13.0667 22.7067 14.64 21.6933 15.8933C22.0133 15.96 22.3333 16 22.6667 16ZM28 23C28 21.1867 27.0933 19.7733 25.76 18.6933C28.7466 19.32 32 20.7467 32 23V25.3333H28V23Z" fill="#75F3E7"/>
</svg>
